<svg xmlns="http://www.w3.org/2000/svg" width="1122.088" height="263.935" viewBox="0 0 1122.088 263.935">
  <g id="Group_1658" data-name="Group 1658" transform="translate(-170.216 -364.882)">
    <g id="Group_1" data-name="Group 1" transform="translate(170.216 364.882)">
      <path id="Path_1" data-name="Path 1" d="M232.912,484.377c-7.579-2.854-13.82-6.406-17.932-10.014a59.34,59.34,0,0,0,32.149,9.362,59.964,59.964,0,0,0,59.734-59.738c.007-.007,33,32.928,36.127,36.049-28.7,25.733-73.136,38.236-110.078,24.34Z" transform="translate(-115.103 -292.111)" fill="#004a9b" fill-rule="evenodd"/>
      <path id="Path_2" data-name="Path 2" d="M256.161,443.921l36.05-36.122,36.122,36.045L292.288,479.97l-36.127-36.05Z" transform="translate(-64.401 -312.043)" fill="#0095d6" fill-rule="evenodd"/>
      <path id="Path_3" data-name="Path 3" d="M408.463,418.767a131.857,131.857,0,1,0,25.685,77.94v-.02l-18,18.035L398.1,532.808c-19.293,17.3-45.7,28.617-72.152,29.956-.6.031-1.2.058-1.807.078h-.036c-1.229.04-2.459.063-3.686.058-.6,0-1.207-.009-1.807-.02l-.031,0q-1.841-.037-3.675-.143c-.6-.036-1.2-.073-1.807-.121l-.027,0c-.6-.047-1.2-.1-1.805-.154l-.022,0c-.6-.058-1.2-.118-1.805-.19l-.022,0c-.6-.069-1.2-.143-1.8-.223l-.02,0c-.6-.08-1.2-.165-1.8-.259l-.018,0c-.6-.094-1.2-.19-1.794-.294l-.016,0c-.6-.1-1.2-.216-1.789-.332l-.016,0q-.894-.174-1.785-.368l-.011,0c-.6-.127-1.189-.263-1.781-.4l-.009,0c-.594-.141-1.182-.286-1.774-.442H296.8c-.589-.154-1.178-.312-1.767-.48l-.007,0c-.587-.165-1.176-.337-1.76-.515h0c-.587-.181-1.169-.364-1.751-.556l0,0c-.582-.19-1.165-.388-1.743-.591h0q-.874-.308-1.736-.631c-7.579-2.854-13.82-6.406-17.932-10.013l.018.013.02.011.018.011.016.011.02.011.018.013.018.009.02.013.018.011.016.011.02.011.018.013.018.011.02.011.016.011.02.011.016.009a59.632,59.632,0,1,1,85.557-76.142l41.982-41.908,10.522-10.511Zm-138,128.6.016.013.02.011.018.011.018.011h0l.018.011.016.011.02.013.018.011.02.011.018.011.018.011.018.011.018.011.02.011.018.014.018.009.018.013.02.009.018.013.036.022.018.011.02.013.018.009.018.014.018.009.02.013.165.1.02.009.036.025.018.009.02.013.018.011.02.011.018.011-.738-.455-.071-.047Zm.007.006-.065-.042,0,0,.063.038Zm14.48,6.6-.02-.009.022.009.018.007h0l.022,0,.018.007h0l-.02-.007h0l-.02,0-.02-.007Zm-.02-.009-.02,0,.02,0Zm-.02,0-.022-.007.022.007Zm-.022-.007-.02-.007.02.007Zm-.02-.007-.02-.007.02.007Zm-.02-.007-.022-.007.022.007Zm-.022-.007-.022,0,.022,0Zm-.022,0-.02-.007.02.007Zm-.02-.007-.02-.009.02.009Zm-.02-.009-.022,0,.022,0Zm-.022,0-.02-.007.02.007Zm-.02-.007-.011,0,.011,0Zm-.011,0-.011,0,.011,0Zm-.011,0-.02-.007.02.007Zm-.02-.007-.022-.007.022.007Zm-.022-.007-.018-.007.018.007Zm-.018-.007-.022,0,.022,0Zm-.022,0-.02-.007.02.007Zm-.02-.007-.022-.007.022.007Zm-.022-.007-.02-.007.02.007Zm-.02-.007-.022-.007.022.007Zm-.065-.02-1.283-.415.02.009.02.007.02,0,.02.006.02.007.02.007.02.007.02.007.02.006.02.007.02.007.02.007.02.007.02.006.018.007.022.007.02.007.018.007.022.006.018.007.022,0,.018.009.02.007.022,0,.018.007.02.007.02.007.02.007.022.007.018.007.02.007.02.007.02.007.022.007.018,0,.02.007.02.009.02,0,.02.007.02.007.02.007.02.007.02.007.02,0,.02.007.02.009.02,0,.02.007.02,0,.018.007h0l.02.009.02,0,.02.007.02.007.02.007.02.007.02,0,.02.007.02.007.02.007.02,0,.02.007.022.007.018.007Zm-1.412-.458-.02-.007.02.007Zm-.02-.007-.02-.009.02.009Zm-.02-.009-.02-.007.02.007Zm-.02-.007-.02-.007v0l.02,0Zm-.02-.007-.02-.007v0l.02,0Zm-.183-.062-.02,0h0l.02,0Zm-.02,0-.02-.009v0l.02.007Zm-.02-.009-.02-.007v0l.02,0Zm-.02-.007-.02-.007v0l.02,0Zm-.02-.007-.02-.007v0l.02,0Zm-.025-.007-.016-.007v0l.016,0Zm-.016-.007-.02-.006h0l.02.006Zm-.02-.006-.02-.009v0l.02.007Zm-.02-.009-.02-.007v0l.02,0Zm-.02-.007-.02-.007v0l.02,0Zm-.02-.007-.02-.006v0l.02,0Zm-.02-.006-.02-.007v0l.02,0Zm-.02-.007-.02-.006v0l.02,0Zm-.02-.006-.02-.007h0l.02.007Zm-.02-.007-.02-.009v0l.02.007Zm-.02-.009-.02-.007v0l.02,0Zm-.02-.007-.02-.007v0l.02,0Zm-.02-.007-.02-.007v0l.02,0Zm-.02-.007-.02-.007v0l.02,0Zm-.02-.007-.02-.006v0l.02,0Zm-.02-.006-.02-.009v0l.02.007Zm-.02-.009-.02-.007v0l.02,0Zm-.02-.007-.02-.007v0l.02,0Zm-.02-.007-.02-.007v0l.02,0Zm-.261-.092-.02-.007h0l.02.007Z" transform="translate(-170.216 -364.882)" fill="#0f103b" fill-rule="evenodd"/>
    </g>
    <g id="Group_2" data-name="Group 2" transform="translate(481.215 440.292)">
      <path id="Path_4" data-name="Path 4" d="M546.524,495.129c8.289-9.38,12.718-17.765,12.718-35.184V400.852H525.22V460.84c0,22.189-29.76,22.189-29.76,0V400.852H461.446v59.093c0,17.419,4.422,25.8,12.713,35.184,16.489,18.655,55.874,18.655,72.364,0Z" transform="translate(-122.655 -396.006)" fill="#0f103b" fill-rule="evenodd"/>
      <path id="Path_5" data-name="Path 5" d="M588.971,468.974a25.563,25.563,0,1,1,1.305-25.17H622.84a56.715,56.715,0,1,0-.6,25.17Z" transform="translate(-61.796 -398.68)" fill="#0f103b" fill-rule="evenodd"/>
      <path id="Path_6" data-name="Path 6" d="M355.186,504.373l34.162-.052,3.5-16.194,35.643.033,3.389,16.217,34.414,0L441.174,400.857l-60.824.011L355.186,504.373Zm45.1-47.346h20.91l-6.446-25.067h-8.679l-5.785,25.067Z" transform="translate(-253.482 -396)" fill="#0f103b" fill-rule="evenodd"/>
      <path id="Path_7" data-name="Path 7" d="M565.213,504.351h86.444V475.993H598.63V464.841H640.5V440.559H598.63V429.184h53.027V400.83H565.213V504.351Z" transform="translate(5.102 -396.033)" fill="#0f103b" fill-rule="evenodd"/>
      <path id="Path_8" data-name="Path 8" d="M609.087,504.351h32.628l9.108-49.87,21.392,49.87h15.3L709.838,452.3l9.508,52.047h32.622l-18.9-103.521H698.509l-18.639,43.461L661.221,400.83H627.994L609.087,504.351Z" transform="translate(59.12 -396.033)" fill="#0f103b" fill-rule="evenodd"/>
      <path id="Path_9" data-name="Path 9" d="M409.992,504.2h34.019V458.543c9.982,14.666,18.311,30.353,27.305,45.662h36.252V400.791H473.556v45.666l-26.411-45.666H409.992V504.2Z" transform="translate(-186.005 -396.081)" fill="#0f103b" fill-rule="evenodd"/>
      <path id="Path_10" data-name="Path 10" d="M356.6,400.791h-47V504.2h45.659c27.785,0,53.261-23.249,53.261-51.482v-2.238c0-26.172-25.893-49.693-51.92-49.693Zm11.856,66.436c-7.233,7.718-15.284,7.432-24.837,7.432v-44.32c9.859,0,17.8-.676,25.186,7.49a22.159,22.159,0,0,1,5.7,15.342,21.035,21.035,0,0,1-6.047,14.056Z" transform="translate(-309.603 -396.081)" fill="#0f103b" fill-rule="evenodd"/>
    </g>
    <g id="Group_3" data-name="Group 3" transform="translate(834.407 591.112)">
      <path id="Path_11" data-name="Path 11" d="M505.915,503.154h-6.767l-3.7-8.8H478.21l-3.752,8.8H467.9l16.04-36.714h5.935ZM486.8,474.1l-6.247,14.581H493.1Z" transform="translate(-467.9 -466.074)"/>
      <path id="Path_12" data-name="Path 12" d="M520.03,491.9c-2.851,2.593-5.261,4.1-9.145,4.1-5.7,0-10-4.674-10-10.872v-.1c0-6.133,4.3-10.765,10-10.765,3.148,0,5.888,1.218,8.891,3.94l.272.243,5.467-6.3-.243-.234c-3.943-3.882-8.365-5.614-14.338-5.614-10.823,0-18.985,8.1-18.985,18.831v.1a18.293,18.293,0,0,0,18.682,18.726c6.272,0,10.594-1.878,14.908-6.49l.237-.252-5.489-5.542Z" transform="translate(-438.292 -466.26)"/>
      <path id="Path_13" data-name="Path 13" d="M540.855,478.813v-.1c0-7.611-5.172-12.151-13.833-12.151H510.33v36.444h8.579V491.571h5.625l7.548,11.276.109.158H542.25l-8.856-12.948a11.437,11.437,0,0,0,7.461-11.245m-21.946-4.44h7.45c3.751,0,5.814,1.689,5.814,4.746v.1c0,2.894-2.171,4.692-5.663,4.692h-7.6Z" transform="translate(-415.661 -465.924)"/>
      <path id="Path_14" data-name="Path 14" d="M550.015,466.563V480.7H536.241v-14.14h-8.58V503h8.58V488.66h13.774V503h8.579V466.563Z" transform="translate(-394.323 -465.923)"/>
      <path id="Path_15" data-name="Path 15" d="M568.674,503.981c-10.623,0-18.537-8.28-18.537-18.8,0-10.417,7.758-18.909,18.8-18.909a18.991,18.991,0,0,1,14.267,5.678l-4.115,4.739c-2.916-2.711-6.038-4.529-10.205-4.529-6.977,0-12.031,5.725-12.031,12.914s5.053,13.017,12.031,13.017c4.48,0,7.343-1.825,10.469-4.737l4.114,4.163c-3.8,3.963-7.968,6.459-14.791,6.459" transform="translate(-366.65 -466.276)"/>
      <path id="Path_16" data-name="Path 16" d="M586.375,503.981a18.854,18.854,0,1,1,19.113-18.9,18.513,18.513,0,0,1-19.113,18.9m0-31.817c-7.238,0-12.292,5.776-12.292,12.917s5.156,13.017,12.395,13.017,12.292-5.783,12.292-12.914-5.156-13.019-12.394-13.019" transform="translate(-345.437 -466.276)"/>
      <path id="Path_17" data-name="Path 17" d="M605.847,494.054h-.208l-11.4-17.083V503.01h-6.3V466.556h6.823L605.847,483.8l11.094-17.241h6.823V503.01h-6.406V476.867Z" transform="translate(-320.113 -465.93)"/>
      <path id="Path_18" data-name="Path 18" d="M621.846,491.293h-7.24v11.718H608.2V466.556h14.374c8.49,0,13.849,4.792,13.849,12.24,0,8.227-6.56,12.5-14.577,12.5m.208-18.9h-7.447v13.124h7.447c4.842,0,7.863-2.66,7.863-6.564,0-4.322-3.074-6.56-7.863-6.56" transform="translate(-295.164 -465.931)"/>
      <path id="Path_19" data-name="Path 19" d="M658.661,503.154h-6.768l-3.7-8.8H630.956l-3.754,8.8h-6.557l16.04-36.714h5.935ZM639.548,474.1,633.3,488.676h12.548Z" transform="translate(-279.842 -466.074)"/>
      <path id="Path_20" data-name="Path 20" d="M665.954,466.556h6.3V503.01h-5.364l-20.1-25.931V503.01h-6.3V466.556h5.935l19.528,25.209Z" transform="translate(-255.408 -465.931)"/>
      <path id="Path_21" data-name="Path 21" d="M678.19,503.011h-6.457V488.637l-14.481-22.08H664.8L675.013,482.7l10.311-16.145h7.344L678.19,488.483Z" transform="translate(-234.771 -465.931)"/>
    </g>
  </g>
</svg>
