<?xml version="1.0" encoding="utf-8"?>
<!-- Generator: Adobe Illustrator 19.2.1, SVG Export Plug-In . SVG Version: 6.00 Build 0)  -->
<svg version="1.1" id="Ebene_1" xmlns="http://www.w3.org/2000/svg" xmlns:xlink="http://www.w3.org/1999/xlink" x="0px" y="0px"
	 viewBox="0 0 479.5 223.1" style="enable-background:new 0 0 479.5 223.1;" xml:space="preserve">
<style type="text/css">
	.st0{fill:#3E3D40;}
	.st1{fill:#D95017;}
</style>
<path class="st0" d="M4.8,136.1c-3.1,21.7,0.2,36.6,12.4,54.7c11.7,17.5,25,27.4,43.3,32H75V136L4.8,136.1z"/>
<polygon class="st0" points="161.1,23.1 90.4,23.1 90.4,222.8 102.6,222.8 161.1,121.6 "/>
<rect x="333.9" y="23.1" class="st0" width="145.6" height="50.6"/>
<polygon class="st0" points="334.2,119 393.8,222.7 403.6,222.7 403.6,141.1 479.5,141.1 479.5,89.8 334.2,89.8 "/>
<polygon class="st1" points="257.4,127.5 312.3,222.7 374.9,222.7 288.6,72.8 "/>
<polygon class="st1" points="148.1,175 120.8,222.7 293.4,222.7 265.8,175 "/>
<polygon class="st1" points="279.3,57 247.7,2.4 157.3,159.4 220.1,159.4 "/>
</svg>
